<?xml version="1.0" encoding="UTF-8"?>
<!-- Generator: Adobe Illustrator 13.0.2, SVG Export Plug-In . SVG Version: 6.00 Build 14948)  -->
<!DOCTYPE svg PUBLIC "-//W3C//DTD SVG 1.1//EN" "http://www.w3.org/Graphics/SVG/1.1/DTD/svg11.dtd">
<svg version="1.1" xmlns="http://www.w3.org/2000/svg" xmlns:xlink="http://www.w3.org/1999/xlink" x="0px" y="0px" width="117.72px" height="214.883px" viewBox="0 0 117.72 214.883" enable-background="new 0 0 117.72 214.883" xml:space="preserve">
<g id="Background">
</g>
<g id="Foreground">
	<g>
		<path fill-rule="evenodd" clip-rule="evenodd" fill="#FDB827" d="M117.576,167.219H73.08v2.16h44.496V167.219L117.576,167.219z     M0,167.219h44.64v2.16H0V167.219z"/>
		<path fill="#00529B" d="M112.536,153.755v-2.232c0.648-0.216,1.08-0.576,1.44-1.008c0.72-0.792,1.08-2.016,1.08-3.672    c0-1.656-0.36-2.88-1.08-3.672c-0.36-0.36-0.864-0.72-1.44-0.864v-2.304c0.36,0,0.576,0.072,0.864,0.144    c0.792,0.216,1.44,0.576,2.088,1.08c0.72,0.576,1.296,1.368,1.656,2.304s0.576,2.088,0.576,3.312c0,1.368-0.216,2.52-0.648,3.528    c-0.36,0.936-1.008,1.728-1.872,2.376c-0.576,0.36-1.224,0.72-1.944,0.864C113.04,153.683,112.824,153.755,112.536,153.755z     M112.536,140.003v2.304c-0.504-0.216-1.224-0.36-1.944-0.36c-0.144,0-0.288,0.072-0.36,0.072c-0.072,0-0.144,0-0.144,0v9.72    c0.072,0,0.216,0,0.288,0c0.144,0,0.288,0,0.432,0c0.648,0,1.224-0.072,1.728-0.216v2.232c-0.648,0.072-1.44,0.144-2.376,0.144    h-2.736v-14.04h2.736C111.096,139.859,111.888,139.859,112.536,140.003L112.536,140.003z M99.864,151.019v-1.656h2.016    c-0.144-0.288-0.216-0.576-0.36-0.864c-0.072-0.288-0.144-0.648-0.216-0.936l-0.936-4.392c-0.072-0.288-0.144-0.504-0.144-0.792    c-0.072-0.288-0.072-0.576-0.144-0.864h-0.216v-1.656h1.584l4.104,14.04h-2.88l-0.648-2.88H99.864z M99.864,139.859v1.656H99.72    c0,0.216-0.072,0.432-0.072,0.72c-0.072,0.216-0.072,0.504-0.216,0.936l-0.936,4.392c-0.072,0.288-0.144,0.576-0.216,0.864    c-0.144,0.36-0.216,0.648-0.36,0.936h1.944v1.656h-2.16l-0.648,2.88h-2.592l4.032-14.04H99.864L99.864,139.859z M87.768,153.755    v-2.232c0.576-0.216,1.08-0.576,1.44-1.008c0.72-0.792,1.08-2.016,1.08-3.672c0-1.656-0.36-2.88-1.152-3.672    c-0.36-0.36-0.792-0.72-1.368-0.864v-2.304c0.288,0,0.576,0.072,0.792,0.144c0.792,0.216,1.512,0.576,2.088,1.08    c0.72,0.576,1.296,1.368,1.656,2.304c0.432,0.936,0.576,2.088,0.576,3.312c0,1.368-0.216,2.52-0.576,3.528    c-0.432,0.936-1.08,1.728-1.872,2.376c-0.576,0.36-1.296,0.72-2.016,0.864C88.272,153.683,87.984,153.755,87.768,153.755z     M87.768,140.003v2.304c-0.576-0.216-1.224-0.36-2.016-0.36c-0.144,0-0.216,0.072-0.288,0.072c-0.072,0-0.144,0-0.216,0v9.72    c0.144,0,0.216,0,0.36,0c0.072,0,0.216,0,0.36,0c0.72,0,1.296-0.072,1.8-0.216v2.232c-0.648,0.072-1.44,0.144-2.448,0.144h-2.736    v-14.04h2.736C86.256,139.859,87.12,139.859,87.768,140.003L87.768,140.003z M58.68,149.147v-2.736    c0.432-0.144,0.792-0.288,1.08-0.504c0.504-0.432,0.792-1.008,0.792-1.872c0-0.648-0.216-1.224-0.576-1.584    c-0.36-0.432-0.792-0.576-1.296-0.648v-1.944c1.296,0.144,2.304,0.432,3.096,0.936c0.936,0.648,1.44,1.656,1.44,3.024    c0,0.936-0.216,1.656-0.72,2.304c-0.504,0.576-1.224,1.08-2.232,1.44v0.144c0.216,0.216,0.504,0.432,0.648,0.648    c0.216,0.144,0.36,0.36,0.504,0.648l2.736,4.896h-3.096L58.68,149.147L58.68,149.147L58.68,149.147z M65.232,150.155h1.08    c0.36,0.576,0.792,1.008,1.368,1.296c0.504,0.288,1.152,0.432,1.872,0.432c0.864,0,1.512-0.144,1.944-0.504    c0.432-0.288,0.648-0.792,0.648-1.368c0-0.792-0.864-1.512-2.736-2.16l-0.144-0.072c-1.44-0.576-2.448-1.08-3.024-1.728    c-0.504-0.576-0.792-1.296-0.792-2.304c0-1.224,0.504-2.16,1.368-2.952c0.864-0.72,2.016-1.152,3.456-1.152    c0.648,0,1.224,0.072,1.872,0.216c0.576,0.144,1.224,0.36,1.872,0.648v2.808H73.08c-0.288-0.576-0.648-0.936-1.08-1.224    c-0.432-0.216-0.936-0.36-1.512-0.36c-0.576,0-1.152,0.144-1.512,0.504c-0.432,0.36-0.648,0.792-0.648,1.296    c0,0.72,0.792,1.44,2.376,2.016c0.216,0.072,0.36,0.144,0.432,0.144c1.368,0.504,2.376,1.152,2.952,1.728    c0.576,0.648,0.864,1.512,0.864,2.52c0,1.224-0.432,2.232-1.368,2.952c-0.936,0.792-2.088,1.152-3.6,1.152    c-0.936,0-1.8-0.072-2.592-0.288c-0.792-0.288-1.512-0.648-2.16-1.08V150.155L65.232,150.155z M77.04,139.859h2.664v14.04H77.04    V139.859z M0.576,148.787v-8.928H3.24v9.144c0,1.08,0.144,1.8,0.504,2.232s0.936,0.648,1.728,0.648s1.368-0.216,1.728-0.648    c0.36-0.432,0.504-1.224,0.504-2.232v-9.144h2.664v8.928c0,0.936-0.072,1.728-0.216,2.232c-0.145,0.576-0.36,1.008-0.648,1.44    c-0.432,0.504-1.008,0.936-1.656,1.224c-0.72,0.288-1.512,0.432-2.376,0.432c-0.864,0-1.656-0.145-2.376-0.432    c-0.648-0.288-1.224-0.72-1.656-1.224c-0.288-0.432-0.504-0.864-0.648-1.368C0.648,150.515,0.576,149.795,0.576,148.787    L0.576,148.787z M58.68,139.859v1.944c-0.072,0-0.072,0-0.144,0h-1.8v4.68c0.072,0,0.144,0,0.288,0c0.072,0,0.216,0,0.432,0    c0.432,0,0.864,0,1.224-0.072v2.736c-0.144-0.288-0.216-0.504-0.288-0.648c-0.072-0.216-0.144-0.36-0.144-0.576    c-0.216,0.072-0.432,0.072-0.648,0.072c-0.216,0.072-0.36,0.072-0.648,0.072h-0.216v5.832h-2.521v-14.04h2.952    C57.672,139.859,58.176,139.859,58.68,139.859L58.68,139.859z M16.344,144.899c-0.216-0.432-0.36-0.792-0.504-1.224    c-0.144-0.432-0.288-0.864-0.36-1.296h-0.36c0.072,0.72,0.216,1.368,0.288,2.016c0.072,0.576,0.072,1.08,0.072,1.44v8.064h-2.232    v-14.04h3.24l3.528,7.92c0.144,0.36,0.288,0.72,0.432,1.224c0.216,0.504,0.432,1.008,0.648,1.656h0.288    c-0.072-0.576-0.144-1.152-0.216-1.656c-0.072-0.576-0.072-1.08-0.072-1.584v-7.56h2.232v14.04h-3.024L16.344,144.899    L16.344,144.899z M26.208,139.859h2.664v14.04h-2.664V139.859L26.208,139.859z M30.816,139.859h2.52l2.16,9    c0.144,0.504,0.216,1.008,0.288,1.512c0.072,0.504,0.072,1.008,0.072,1.44h0.432c0-0.504,0-1.008,0.072-1.44    c0.072-0.504,0.144-1.008,0.288-1.512l2.16-9H41.4l-4.176,14.184h-2.448L30.816,139.859L30.816,139.859z M43.344,139.859h8.064    v2.16h-5.4v3.456h4.752v2.016h-4.752v4.248h5.544v2.16h-8.208V139.859z"/>
		<path fill="#00529B" d="M53.712,163.331c0.216,0.072,0.432,0.072,0.648,0.144c0.576,0.144,1.08,0.432,1.584,0.792    c0.432,0.504,0.864,1.08,1.152,1.8c0.288,0.72,0.432,1.584,0.432,2.52c0,1.008-0.144,1.944-0.432,2.664s-0.792,1.368-1.368,1.8    c-0.432,0.36-0.936,0.576-1.512,0.72c-0.144,0-0.288,0.072-0.504,0.072v-1.728c0.432-0.144,0.792-0.36,1.08-0.72    c0.576-0.648,0.792-1.584,0.792-2.808s-0.288-2.16-0.792-2.808c-0.288-0.288-0.648-0.504-1.08-0.648V163.331L53.712,163.331z     M59.4,163.187h6.12v1.728h-4.104v2.592h3.6v1.584h-3.6v3.24h4.176v1.656H59.4V163.187z M51.84,173.987h-2.088v-10.8h2.088    c0.72,0,1.368,0.072,1.872,0.144v1.8c-0.432-0.216-0.936-0.288-1.512-0.288c-0.144,0-0.216,0-0.288,0c0,0-0.072,0-0.144,0.072    v7.416c0.072,0,0.216,0,0.288,0c0.072,0,0.144,0,0.288,0c0.504,0,0.936-0.072,1.368-0.216v1.728    C53.208,173.915,52.56,173.987,51.84,173.987z"/>
		<path fill="#00529B" d="M7.416,205.235v2.088h-0.72c-0.216-0.504-0.504-0.864-0.72-1.008c-0.288-0.216-0.648-0.36-1.08-0.36    c-0.792,0-1.368,0.36-1.872,1.008c-0.432,0.648-0.648,1.512-0.648,2.664c0,1.08,0.216,1.944,0.648,2.664    c0.504,0.648,1.08,0.936,1.8,0.936c0.504,0,0.864-0.072,1.152-0.288s0.576-0.576,0.72-1.008h0.72v2.16    c-0.36,0.216-0.72,0.432-1.08,0.576c-0.432,0.144-0.864,0.216-1.368,0.216c-1.368,0-2.52-0.504-3.312-1.44    c-0.792-0.864-1.224-2.16-1.224-3.816c0-1.584,0.432-2.808,1.224-3.744s1.8-1.44,3.024-1.44c0.432,0,0.864,0.072,1.368,0.216    C6.48,204.803,6.984,204.947,7.416,205.235L7.416,205.235z M35.28,208.619v-4.032h1.872v10.08H35.28v-4.536h-3.456v4.536h-1.872    v-10.08h1.872v4.032H35.28L35.28,208.619z M59.688,204.587h1.944v10.08h-1.944V204.587L59.688,204.587z M84.24,204.587h1.872    v8.496h3.6v1.584H84.24V204.587L84.24,204.587z M111.816,204.587h5.76v1.584h-3.888v2.52h3.456v1.44h-3.456v3.024h3.96v1.512    h-5.832V204.587z"/>
		<path fill="#00529B" d="M111.888,184.067L111.888,184.067v-2.16h0.072c1.728,0,3.096,0.576,4.032,1.8    c1.008,1.296,1.44,3.024,1.44,5.256c0,2.448-0.432,4.248-1.368,5.544c-0.936,1.224-2.304,1.872-4.104,1.872h-0.072v-2.16l0,0    c0.936,0,1.656-0.432,2.088-1.368c0.504-0.864,0.792-2.088,0.792-3.744c0-1.584-0.288-2.808-0.792-3.744    C113.472,184.499,112.824,184.067,111.888,184.067z M111.888,184.067c-0.864,0-1.584,0.432-2.088,1.296    c-0.432,0.936-0.72,2.16-0.72,3.744c0,1.656,0.288,2.88,0.72,3.744c0.504,0.864,1.224,1.368,2.088,1.368v2.16    c-1.8,0-3.168-0.648-4.104-1.872c-0.936-1.296-1.368-3.096-1.368-5.544c0-2.304,0.432-4.032,1.44-5.256    c0.936-1.224,2.304-1.8,4.032-1.8V184.067L111.888,184.067z M79.848,193.211v-1.584h2.016c-0.144-0.288-0.288-0.576-0.36-0.864    c-0.072-0.36-0.144-0.648-0.216-1.008l-1.008-4.32c0-0.288-0.072-0.576-0.144-0.792c0-0.288-0.072-0.576-0.072-0.864h-0.216    v-1.728h1.512l4.176,14.112h-2.88l-0.648-2.952H79.848L79.848,193.211z M94.104,192.419h1.08c0.36,0.576,0.792,1.008,1.368,1.296    c0.504,0.288,1.152,0.432,1.872,0.432c0.864,0,1.512-0.216,1.944-0.504c0.432-0.36,0.648-0.792,0.648-1.368    c0-0.792-0.864-1.512-2.736-2.16l-0.144-0.072c-1.44-0.576-2.448-1.152-3.024-1.728c-0.504-0.576-0.792-1.296-0.792-2.304    c0-1.224,0.432-2.16,1.368-2.952c0.864-0.792,2.016-1.152,3.456-1.152c0.648,0,1.224,0.072,1.872,0.216    c0.576,0.144,1.224,0.36,1.872,0.648v2.736h-0.936c-0.288-0.504-0.648-0.864-1.08-1.152s-0.936-0.36-1.512-0.36    c-0.576,0-1.152,0.144-1.584,0.504c-0.36,0.36-0.576,0.792-0.576,1.296c0,0.72,0.792,1.44,2.376,2.016    c0.216,0.072,0.36,0.144,0.432,0.144c1.368,0.504,2.376,1.08,2.952,1.728c0.576,0.648,0.864,1.512,0.864,2.52    c0,1.224-0.432,2.232-1.368,2.952c-0.936,0.792-2.088,1.152-3.6,1.152c-0.936,0-1.8-0.072-2.592-0.36    c-0.792-0.216-1.512-0.576-2.16-1.008V192.419L94.104,192.419z M88.344,182.051h2.664v14.112h-2.664V182.051z M79.848,182.051    v1.728h-0.216c0,0.216,0,0.432-0.072,0.648c0,0.288-0.072,0.576-0.144,1.008l-0.936,4.32c-0.072,0.36-0.144,0.648-0.288,0.936    c-0.072,0.36-0.216,0.648-0.288,0.936h1.944v1.584h-2.16l-0.648,2.952h-2.592l4.032-14.112H79.848L79.848,182.051z     M67.176,191.339v-2.664c0.504-0.144,0.864-0.288,1.152-0.504c0.504-0.432,0.792-1.008,0.792-1.872    c0-0.648-0.216-1.224-0.576-1.584c-0.36-0.432-0.792-0.576-1.368-0.648v-1.944c1.368,0.144,2.376,0.432,3.096,0.936    c1.008,0.648,1.512,1.656,1.512,3.024c0,0.936-0.288,1.656-0.72,2.232c-0.504,0.648-1.296,1.152-2.304,1.512v0.144    c0.288,0.216,0.504,0.432,0.72,0.576c0.216,0.216,0.36,0.432,0.504,0.648l2.736,4.968h-3.168l-2.304-4.752L67.176,191.339z     M67.176,182.123v1.944h-0.072h-1.8v4.68c0.072,0,0.144,0,0.288,0c0.072,0,0.216,0,0.36,0c0.504,0,0.864,0,1.224-0.072v2.664    c-0.072-0.216-0.216-0.432-0.288-0.576c0-0.216-0.072-0.36-0.144-0.576c-0.144,0.072-0.36,0.072-0.576,0.072    c-0.216,0.072-0.432,0.072-0.648,0.072h-0.216v5.832H62.64v-14.112h3.096C66.24,182.051,66.744,182.123,67.176,182.123    L67.176,182.123z M54.216,193.211v-1.584h2.016c-0.144-0.288-0.216-0.576-0.36-0.864c-0.072-0.36-0.144-0.648-0.216-1.008    l-0.936-4.32c-0.072-0.288-0.144-0.576-0.144-0.792c-0.072-0.288-0.072-0.576-0.144-0.864h-0.216v-1.728H55.8l4.032,14.112h-2.88    l-0.648-2.952H54.216z M54.216,182.051v1.728h-0.144c0,0.216-0.072,0.432-0.072,0.648c-0.072,0.288-0.144,0.576-0.216,1.008    l-0.936,4.32c-0.072,0.36-0.144,0.648-0.216,0.936c-0.144,0.36-0.216,0.648-0.36,0.936h1.944v1.584h-2.16l-0.648,2.952h-2.592    l4.032-14.112H54.216L54.216,182.051z M41.76,191.123v-1.872c0.576-0.144,1.008-0.288,1.296-0.576    c0.576-0.432,0.792-1.08,0.792-1.944c0-0.72-0.144-1.296-0.576-1.728c-0.36-0.432-0.864-0.648-1.512-0.648v-2.232    c1.512,0.072,2.664,0.432,3.456,1.08c0.937,0.72,1.368,1.872,1.368,3.384c0,1.368-0.432,2.52-1.296,3.312    c-0.864,0.864-2.016,1.224-3.456,1.224H41.76z M41.76,182.123v2.232c0,0-0.072,0-0.144,0h-1.944v4.968c0.144,0,0.216,0,0.288,0    c0.144,0,0.288,0,0.504,0c0.504,0,0.936,0,1.296-0.072v1.872h-2.088v5.04H37.08v-14.112h4.104    C41.4,182.051,41.616,182.123,41.76,182.123L41.76,182.123z M17.856,193.211v-1.584H19.8c-0.072-0.288-0.216-0.576-0.288-0.864    c-0.144-0.36-0.216-0.648-0.288-1.008l-0.936-4.32c-0.072-0.288-0.144-0.576-0.144-0.792c-0.072-0.288-0.072-0.576-0.072-0.864    h-0.216v-1.728h1.512l4.176,14.112h-2.952l-0.648-2.952H17.856L17.856,193.211z M26.28,182.051h2.664v11.88h5.04v2.232H26.28    V182.051z M17.856,182.051v1.728H17.64c0,0.216-0.072,0.432-0.072,0.648c0,0.288-0.072,0.576-0.216,1.008l-0.936,4.32    c-0.072,0.36-0.144,0.648-0.216,0.936c-0.072,0.36-0.216,0.648-0.36,0.936h2.016v1.584h-2.232l-0.576,2.952h-2.592l3.96-14.112    H17.856L17.856,182.051z M0,182.051h2.448l2.232,9.072c0.072,0.504,0.216,1.008,0.288,1.512c0,0.504,0.072,0.936,0.072,1.44H5.4    c0-0.504,0.072-1.008,0.144-1.44c0-0.504,0.144-1.008,0.216-1.512l2.232-9.072h2.52l-4.176,14.256H3.888L0,182.051z"/>
		<path fill-rule="evenodd" clip-rule="evenodd" fill="#FFFFFF" d="M82.872,76.067l-4.608-3.312l-4.752,3.312l1.728-5.472    l-4.752-3.528h5.904l1.872-5.472l1.728,5.472h5.904l-4.752,3.528L82.872,76.067z M63.504,119.123l-4.752-3.384l-4.68,3.384    l1.872-5.472l-4.752-3.528h5.76l1.8-5.616l1.872,5.616h5.832l-4.752,3.528L63.504,119.123z M43.776,80.963l-4.752-3.384    l-4.752,3.384l1.8-5.616l-4.68-3.384h5.904l1.728-5.616l1.872,5.616h5.76l-4.608,3.384L43.776,80.963z M63.504,58.211    l-4.752-3.528l-4.68,3.528l1.872-5.616l-4.752-3.528h5.76l1.8-5.472l1.872,5.472h5.832l-4.752,3.528L63.504,58.211z M72.36,88.379    l-2.376-1.656l-2.376,1.656l0.864-2.808l-2.376-1.728h3.024l0.864-2.736l0.864,2.736h3.024l-2.376,1.728L72.36,88.379z"/>
		<g>
			<g>
				<path fill-rule="evenodd" clip-rule="evenodd" fill="#00529B" d="M16.615,30.074h83.128v85.582      c0.074,8.69-4.352,8.43-24.884,13.78l-16.452,3.821c-0.075,0-9.995-2.144-17.216-3.799      c-22.816-5.172-24.577-5.824-24.577-15.755V30.074z"/>
			</g>
			<path fill-rule="evenodd" clip-rule="evenodd" fill="#00529B" d="M65.398,10.986l-3.785,2.516l1.385,4.333l-0.542,0.376     l-3.683-2.723l-3.777,2.794l-0.518-0.376l1.593-4.556l-3.476-2.458l0.188-0.612l4.29,0.022l1.382-4.235l0.636-0.024l1.705,4.263     l4.438,0.045L65.398,10.986z"/>
			<g>
				<polygon fill-rule="evenodd" clip-rule="evenodd" fill="#FFFFFF" points="72.05,88.108 69.678,86.4 67.306,88.108       68.196,85.324 65.839,83.595 68.762,83.582 69.678,80.806 70.593,83.582 73.516,83.595 71.159,85.324     "/>
				<polygon fill-rule="evenodd" clip-rule="evenodd" fill="#FFFFFF" points="63.187,57.847 58.445,54.434 53.704,57.847       55.484,52.283 50.773,48.827 56.615,48.801 58.445,43.253 60.275,48.801 66.117,48.827 61.406,52.283     "/>
				<polygon fill-rule="evenodd" clip-rule="evenodd" fill="#FFFFFF" points="43.371,80.682 38.63,77.27 33.889,80.682       35.669,75.118 30.958,71.663 36.8,71.636 38.63,66.088 40.46,71.636 46.302,71.663 41.591,75.118     "/>
				<polygon fill-rule="evenodd" clip-rule="evenodd" fill="#FFFFFF" points="63.187,118.893 58.445,115.479 53.705,118.893       55.484,113.328 50.774,109.873 56.616,109.847 58.446,104.298 60.276,109.847 66.117,109.873 61.407,113.328     "/>
				<polygon fill-rule="evenodd" clip-rule="evenodd" fill="#FFFFFF" points="82.629,75.85 77.888,72.437 73.146,75.85       74.927,70.286 70.216,66.831 76.058,66.804 77.888,61.256 79.718,66.804 85.56,66.831 80.849,70.286     "/>
			</g>
			<path fill-rule="evenodd" clip-rule="evenodd" fill="#FDB827" d="M26.062,39.334h64.643v70.62     c0.058,7.171-3.384,6.957-19.351,11.371l-12.793,3.153c-0.058,0-7.772-1.769-13.387-3.134     c-17.743-4.269-19.112-4.806-19.112-13.001V39.334z M17.849,31.267h80.659v83.604c0.072,8.489-4.222,8.235-24.145,13.461     L58.4,132.065c-0.072,0-9.698-2.094-16.705-3.711c-22.138-5.053-23.847-5.689-23.847-15.391V31.267z"/>
			<path fill-rule="evenodd" clip-rule="evenodd" fill="#FDB827" d="M58.122,22.591l1.362-0.012l0,2.866h-1.36L58.122,22.591z      M57.996,0h1.505v2.812l-1.509-0.021L57.996,0z M60.237,22.488l1.5-0.328l0.621,3.293H60.49L60.237,22.488z M57.453,22.54     l-1.506-0.277l-0.669,3.19h1.912L57.453,22.54z M62.479,21.958l1.054-0.452l2.104,3.716l-1.853,0.231L62.479,21.958z      M55.333,22.042l-1.091-0.44l-2.148,3.69l1.979,0.152L55.333,22.042z M64.187,21.16l1.148-0.777l3.472,4.57l-2.064,0.162     L64.187,21.16z M53.517,21.235l-1.154-0.765l-3.47,4.599l1.954,0.188L53.517,21.235z M65.847,19.964l0.949-0.958l6.15,5.31     l-2.836,0.434L65.847,19.964z M51.845,20.054l-0.952-0.931l-6.11,5.28l2.836,0.434L51.845,20.054z M67.32,18.352l0.699-1.103     l11.092,5.909l-3.763,0.781L67.32,18.352z M50.312,18.415l-0.695-1.075L38.56,23.245l3.763,0.781L50.312,18.415z M68.459,16.326     l0.409-1.207l18.839,5.607l-4.892,1.505L68.459,16.326z M49.138,16.369l-0.415-1.184l-18.846,5.628l4.892,1.505L49.138,16.369z      M69.016,14.468l0.167-1.384l27.266,3.474l-4.255,2.403L69.016,14.468z M48.56,14.484l-0.157-1.397l-27.18,3.471l4.254,2.403     L48.56,14.484z M60.063,2.848l1.292,0.229l0.939-3.048h-1.766L60.063,2.848z M57.521,2.837l-1.327,0.219l-0.902-3.027h1.766     L57.521,2.837z M62.208,3.329l1.273,0.521l1.998-3.59l-1.679-0.116L62.208,3.329z M55.478,3.294L54.194,3.8l-1.943-3.54     l1.679-0.116L55.478,3.294z M64.211,4.243l0.978,0.649l3.242-4.371l-1.766-0.145L64.211,4.243z M53.457,4.186l-0.967,0.633     l-3.191-4.297l1.737-0.145L53.457,4.186z M65.797,5.384l0.607,0.579l5.963-4.95l-2.402-0.376L65.797,5.384z M51.959,5.228     l-0.627,0.573l-5.884-4.875l2.402-0.376L51.959,5.228z M66.898,6.506l0.774,1.051l10.889-5.444l-4.515-0.811L66.898,6.506z      M50.737,6.439L49.957,7.5l-10.76-5.387l4.516-0.811L50.737,6.439z M68.133,8.364l0.461,1.045L85.826,4.11l-3.792-1.332     L68.133,8.364z M49.458,8.336l-0.466,1.066L31.845,4.11l3.792-1.332L49.458,8.336z M68.769,9.934l0.259,1.097L94.741,7.7     l-4.139-1.998L68.769,9.934z M48.807,9.93l-0.252,1.092L22.93,7.7l4.139-1.998L48.807,9.93z M69.183,12.621l-0.083-1.16     l29.557-0.635v2.924L69.183,12.621z M48.408,12.627l0.067-1.167l-30.637-0.693v2.986L48.408,12.627z"/>
		</g>
	</g>
</g>
<g id="Guides" display="none">
</g>
</svg>